<?xml version="1.0" encoding="UTF-8"?>
<svg version="1.1" xmlns="http://www.w3.org/2000/svg" width="64" height="64">
<path d="M0 0 C6.19344732 -0.36886182 9.84288372 0.3212264 14.546875 4.44921875 C15.15273438 5.04992187 15.75859375 5.650625 16.3828125 6.26953125 C16.98867188 6.84960938 17.59453125 7.4296875 18.21875 8.02734375 C23.97808097 14.03817389 28.4292441 21.50168926 30.0703125 29.70703125 C28.85709419 35.99370795 27.39448847 43.25785528 22.7265625 47.92578125 C15.63045142 51.89479253 4.56043739 53.39329889 -3.43359375 52.1171875 C-13.5379873 48.19473061 -20.375216 36.74458909 -24.6171875 27.26953125 C-25.41034902 20.7920455 -23.57165474 14.98896638 -20.6171875 9.26953125 C-14.82944975 2.50150381 -8.61791802 0.88751693 0 0 Z M-5.6171875 2.26953125 C-5.6171875 2.59953125 -5.6171875 2.92953125 -5.6171875 3.26953125 C-0.9971875 3.26953125 3.6228125 3.26953125 8.3828125 3.26953125 C8.3828125 2.93953125 8.3828125 2.60953125 8.3828125 2.26953125 C3.7628125 2.26953125 -0.8571875 2.26953125 -5.6171875 2.26953125 Z " fill="#F1F3F6" transform="translate(29.6171875,4.73046875)"/>
<path d="M0 0 C5.55869988 0.94904632 8.6078926 4.73311908 12 9 C16.90807912 17.04148557 20.49465362 23.76988129 18.1875 33.38671875 C14.5839088 43.40327983 14.5839088 43.40327983 10.5 45.6875 C2.02390329 48.73184475 -7.17589442 49.76482112 -16 48 C-16.33 47.34 -16.66 46.68 -17 46 C-16.23816406 45.96261719 -15.47632812 45.92523438 -14.69140625 45.88671875 C-8.20731367 45.4738739 -1.90220398 44.93007276 4 42 C4.33 41.34 4.66 40.68 5 40 C2.69 39.34 0.38 38.68 -2 38 C-2 37.34 -2 36.68 -2 36 C-4.31 35.67 -6.62 35.34 -9 35 C-9 35.66 -9 36.32 -9 37 C-9.66 37 -10.32 37 -11 37 C-11.0928125 36.071875 -11.0928125 36.071875 -11.1875 35.125 C-11.828919 32.72238859 -11.828919 32.72238859 -14.5625 31.75 C-15.366875 31.5025 -16.17125 31.255 -17 31 C-17 29.68 -17 28.36 -17 27 C-15.35 27 -13.7 27 -12 27 C-12 27.66 -12 28.32 -12 29 C-7.6542293 29 -6.34143479 28.63797483 -3 26 C-1.64019119 22.92438754 -1.64019119 22.92438754 -1 20 C-2.918125 20.061875 -2.918125 20.061875 -4.875 20.125 C-7.0546875 20.1953125 -7.0546875 20.1953125 -9 20 C-9.66 19.34 -10.32 18.68 -11 18 C-10.65238379 14.24574497 -10.0165376 10.63049144 -9 7 C-3.98983224 6.58981083 -1.70103271 7.44582748 2.25 10.5 C5.30325001 13.1490424 5.30325001 13.1490424 9 14 C7.47793991 11.37098712 6.15634036 9.15634036 4 7 C4 5.68 4 4.36 4 3 C3.01 3 2.02 3 1 3 C0.67 2.01 0.34 1.02 0 0 Z " fill="#A797A7" transform="translate(40,8)"/>
<path d="M0 0 C1.171875 1.671875 1.171875 1.671875 1.171875 4.671875 C2.161875 4.671875 3.151875 4.671875 4.171875 4.671875 C4.44 5.435 4.708125 6.198125 4.984375 6.984375 C5.98041025 9.67594872 5.98041025 9.67594872 7.796875 11.296875 C8.250625 11.750625 8.704375 12.204375 9.171875 12.671875 C9.171875 13.661875 9.171875 14.651875 9.171875 15.671875 C8.511875 15.671875 7.851875 15.671875 7.171875 15.671875 C6.841875 16.331875 6.511875 16.991875 6.171875 17.671875 C6.171875 16.681875 6.171875 15.691875 6.171875 14.671875 C5.3365625 14.2696875 5.3365625 14.2696875 4.484375 13.859375 C2.171875 12.671875 2.171875 12.671875 -0.203125 11.109375 C-3.11275114 9.5160083 -5.55292674 9.05271201 -8.828125 8.671875 C-9.02214133 10.48368905 -9.20816875 12.29636032 -9.390625 14.109375 C-9.49503906 15.11871094 -9.59945313 16.12804687 -9.70703125 17.16796875 C-9.74699219 17.99425781 -9.78695313 18.82054688 -9.828125 19.671875 C-8.81976438 20.90454848 -8.81976438 20.90454848 -6.76171875 20.76953125 C-5.93800781 20.75792969 -5.11429688 20.74632813 -4.265625 20.734375 C-3.43933594 20.72535156 -2.61304688 20.71632813 -1.76171875 20.70703125 C-1.12363281 20.69542969 -0.48554687 20.68382813 0.171875 20.671875 C-2.10491071 28.70758929 -2.10491071 28.70758929 -6.515625 31.171875 C-7.60875 31.666875 -8.701875 32.161875 -9.828125 32.671875 C-9.828125 32.011875 -9.828125 31.351875 -9.828125 30.671875 C-10.488125 30.671875 -11.148125 30.671875 -11.828125 30.671875 C-11.828125 30.011875 -11.828125 29.351875 -11.828125 28.671875 C-12.818125 28.671875 -13.808125 28.671875 -14.828125 28.671875 C-14.828125 26.031875 -14.828125 23.391875 -14.828125 20.671875 C-15.488125 20.671875 -16.148125 20.671875 -16.828125 20.671875 C-18.828125 17.671875 -18.828125 17.671875 -18.828125 14.671875 C-18.168125 14.671875 -17.508125 14.671875 -16.828125 14.671875 C-16.828125 11.371875 -16.828125 8.071875 -16.828125 4.671875 C-19.138125 4.341875 -21.448125 4.011875 -23.828125 3.671875 C-24.158125 5.321875 -24.488125 6.971875 -24.828125 8.671875 C-25.818125 8.341875 -26.808125 8.011875 -27.828125 7.671875 C-32.22901165 16.15929926 -32.38409485 22.33605591 -30.828125 31.671875 C-34.22645411 27.23927182 -35.53090508 24.31419504 -34.828125 18.671875 C-33.01685176 11.14308863 -30.47824695 5.85736842 -23.828125 1.671875 C-18.08131995 -1.483885 -5.7013699 -4.14202087 0 0 Z M-15.828125 0.671875 C-15.828125 1.001875 -15.828125 1.331875 -15.828125 1.671875 C-11.208125 1.671875 -6.588125 1.671875 -1.828125 1.671875 C-1.828125 1.341875 -1.828125 1.011875 -1.828125 0.671875 C-6.448125 0.671875 -11.068125 0.671875 -15.828125 0.671875 Z " fill="#DFDFED" transform="translate(39.828125,6.328125)"/>
<path d="M0 0 C5.55869988 0.94904632 8.6078926 4.73311908 12 9 C16.90807912 17.04148557 20.49465362 23.76988129 18.1875 33.38671875 C14.5839088 43.40327983 14.5839088 43.40327983 10.5 45.6875 C2.02390329 48.73184475 -7.17589442 49.76482112 -16 48 C-16.33 47.34 -16.66 46.68 -17 46 C-16.23816406 45.96261719 -15.47632812 45.92523438 -14.69140625 45.88671875 C-6.21579587 45.34707315 2.01771153 44.23671635 9 39 C9.33 38.01 9.66 37.02 10 36 C10.99 35.505 10.99 35.505 12 35 C14.31547302 30.54961837 15.66949351 26.02120134 15 21 C13.23526445 17.28843126 13.23526445 17.28843126 10 15 C8.9935725 13.33720673 7.99414593 11.67016516 7 10 C6.443125 9.484375 5.88625 8.96875 5.3125 8.4375 C4 7 4 7 4 3 C3.01 3 2.02 3 1 3 C0.67 2.01 0.34 1.02 0 0 Z " fill="#252122" transform="translate(40,8)"/>
<path d="M0 0 C1.171875 1.671875 1.171875 1.671875 1.171875 4.671875 C2.161875 4.671875 3.151875 4.671875 4.171875 4.671875 C3.841875 5.661875 3.511875 6.651875 3.171875 7.671875 C0.531875 7.341875 -2.108125 7.011875 -4.828125 6.671875 C-4.828125 6.011875 -4.828125 5.351875 -4.828125 4.671875 C-3.838125 4.671875 -2.848125 4.671875 -1.828125 4.671875 C-1.828125 4.011875 -1.828125 3.351875 -1.828125 2.671875 C-4.138125 2.671875 -6.448125 2.671875 -8.828125 2.671875 C-8.828125 3.661875 -8.828125 4.651875 -8.828125 5.671875 C-8.168125 6.001875 -7.508125 6.331875 -6.828125 6.671875 C-9.303125 6.176875 -9.303125 6.176875 -11.828125 5.671875 C-11.828125 5.011875 -11.828125 4.351875 -11.828125 3.671875 C-12.818125 3.341875 -13.808125 3.011875 -14.828125 2.671875 C-15.488125 2.341875 -16.148125 2.011875 -16.828125 1.671875 C-19.1775303 2.27947982 -21.51341588 2.94317028 -23.828125 3.671875 C-24.158125 5.321875 -24.488125 6.971875 -24.828125 8.671875 C-25.818125 8.341875 -26.808125 8.011875 -27.828125 7.671875 C-32.22901165 16.15929926 -32.38409485 22.33605591 -30.828125 31.671875 C-34.22645411 27.23927182 -35.53090508 24.31419504 -34.828125 18.671875 C-33.01685176 11.14308863 -30.47824695 5.85736842 -23.828125 1.671875 C-18.08131995 -1.483885 -5.7013699 -4.14202087 0 0 Z " fill="#9D969F" transform="translate(39.828125,6.328125)"/>
<path d="M0 0 C2.67985418 2.67985418 3.16491955 5.42431913 4.21875 9.00390625 C4.81628991 11.18727401 4.81628991 11.18727401 7 12 C7 13.32 7 14.64 7 16 C6.34 16 5.68 16 5 16 C4.34 14.02 3.68 12.04 3 10 C2.01 10 1.02 10 0 10 C-0.36471825 19.44456531 -0.36471825 19.44456531 3 28 C0.125 27.5625 0.125 27.5625 -3 26 C-4.32463866 23.08702147 -4.67489338 20.16470976 -5 17 C-5.0825 16.31035156 -5.165 15.62070312 -5.25 14.91015625 C-5.59663398 9.43983869 -3.80864522 5.52315958 -1 1 C-0.67 0.67 -0.34 0.34 0 0 Z " fill="#C8CCD5" transform="translate(12,14)"/>
<path d="M0 0 C2.31 0 4.62 0 7 0 C7 0.66 7 1.32 7 2 C6.01 2 5.02 2 4 2 C4 2.66 4 3.32 4 4 C5.19625 3.87625 6.3925 3.7525 7.625 3.625 C11.24567578 3.60567255 12.89912651 4.29251492 15.5 6.8125 C17.70300569 9.18541836 18 9.61730685 18 13 C17.34 13 16.68 13 16 13 C15.67 13.66 15.34 14.32 15 15 C15 14.01 15 13.02 15 12 C14.443125 11.731875 13.88625 11.46375 13.3125 11.1875 C11 10 11 10 8.625 8.4375 C5.71537386 6.8441333 3.27519826 6.38083701 0 6 C-0.33 7.32 -0.66 8.64 -1 10 C-1 8.68 -1 7.36 -1 6 C-2.65 6 -4.3 6 -6 6 C-6 5.67 -6 5.34 -6 5 C-4.02 4.67 -2.04 4.34 0 4 C0 2.68 0 1.36 0 0 Z " fill="#C0C6D6" transform="translate(31,9)"/>
<path d="M0 0 C3.3 0 6.6 0 10 0 C7.72321429 8.03571429 7.72321429 8.03571429 3.3125 10.5 C2.219375 10.995 1.12625 11.49 0 12 C0 11.34 0 10.68 0 10 C-0.66 10 -1.32 10 -2 10 C-2 9.34 -2 8.68 -2 8 C-2.99 7.67 -3.98 7.34 -5 7 C-3.68 7 -2.36 7 -1 7 C-0.67 4.69 -0.34 2.38 0 0 Z " fill="#C6C8D7" transform="translate(30,27)"/>
<path d="M0 0 C1.65 0 3.3 0 5 0 C5 0.66 5 1.32 5 2 C6.32 2 7.64 2 9 2 C10.32 2 11.64 2 13 2 C13 2.66 13 3.32 13 4 C13.66 4 14.32 4 15 4 C15 5.65 15 7.3 15 9 C12.69 8.67 10.38 8.34 8 8 C8 8.66 8 9.32 8 10 C7.34 10 6.68 10 6 10 C5.938125 9.38125 5.87625 8.7625 5.8125 8.125 C5.171081 5.72238859 5.171081 5.72238859 2.4375 4.75 C1.633125 4.5025 0.82875 4.255 0 4 C0 2.68 0 1.36 0 0 Z " fill="#A68594" transform="translate(23,35)"/>
<path d="M0 0 C0.66 0 1.32 0 2 0 C2.28571429 7.42857143 2.28571429 7.42857143 0 11 C-0.66 11 -1.32 11 -2 11 C-2.0825 11.61875 -2.165 12.2375 -2.25 12.875 C-3 15 -3 15 -5.0625 16.25 C-5.701875 16.4975 -6.34125 16.745 -7 17 C-7 16.34 -7 15.68 -7 15 C-9.97 14.505 -9.97 14.505 -13 14 C-13 13.67 -13 13.34 -13 13 C-11.35 13 -9.7 13 -8 13 C-8 12.01 -8 11.02 -8 10 C-7.01 9.67 -6.02 9.34 -5 9 C-3.54355243 6.91187542 -3.54355243 6.91187542 -2.3125 4.4375 C-1.87550781 3.61121094 -1.43851563 2.78492188 -0.98828125 1.93359375 C-0.66214844 1.29550781 -0.33601563 0.65742187 0 0 Z " fill="#9D9AA8" transform="translate(52,33)"/>
<path d="M0 0 C2 2 2 2 2.125 4.625 C2.08375 5.40875 2.0425 6.1925 2 7 C-1.66666667 7 -5.33333333 7 -9 7 C-9 5 -9 3 -9 1 C-9.66 0.67 -10.32 0.34 -11 0 C-6.54941445 -1.86303581 -4.28938553 -2.38299196 0 0 Z " fill="#97111B" transform="translate(43,19)"/>
<path d="M0 0 C2.875 -0.1875 2.875 -0.1875 6 0 C6.66 0.99 7.32 1.98 8 3 C10.58380177 3.25030977 10.58380177 3.25030977 13 3 C13 3.99 13 4.98 13 6 C5.94887561 8.21211746 -0.64657821 8.20177072 -8 8 C-8 7.67 -8 7.34 -8 7 C-6.9275 6.855625 -5.855 6.71125 -4.75 6.5625 C-2.08337051 6.16250558 0.41399729 5.72408076 3 5 C3 4.34 3 3.68 3 3 C1.35 3.33 -0.3 3.66 -2 4 C-2 3.34 -2 2.68 -2 2 C-1.34 2 -0.68 2 0 2 C0 1.34 0 0.68 0 0 Z " fill="#B1A8B3" transform="translate(30,46)"/>
<path d="M0 0 C0.99 0.495 0.99 0.495 2 1 C2 2.32 2 3.64 2 5 C2.66 5 3.32 5 4 5 C4 4.34 4 3.68 4 3 C6.3431213 3.25561323 8.67843403 3.59270772 11 4 C11.33 4.66 11.66 5.32 12 6 C13.97888961 6.72693904 15.97954558 7.39816251 18 8 C18 8.66 18 9.32 18 10 C14.625 10.1875 14.625 10.1875 11 10 C10.34 9.01 9.68 8.02 9 7 C5.89505874 6.68154449 3.98273923 7.00575359 1 8 C1 8.66 1 9.32 1 10 C2.65 9.67 4.3 9.34 6 9 C6 9.66 6 10.32 6 11 C4.02 11.66 2.04 12.32 0 13 C0 8.71 0 4.42 0 0 Z " fill="#DAD4E0" transform="translate(27,40)"/>
<path d="M0 0 C-0.47610659 4.99911924 -2.03162219 7.97832683 -5 12 C-5.33 11.01 -5.66 10.02 -6 9 C-4.5625 6.3125 -4.5625 6.3125 -3 4 C-3.99 4 -4.98 4 -6 4 C-6.33 5.98 -6.66 7.96 -7 10 C-8.98 10.33 -10.96 10.66 -13 11 C-13 8.03 -13 5.06 -13 2 C-11 4 -11 4 -10.875 6.625 C-10.91625 7.40875 -10.9575 8.1925 -11 9 C-10.34 9 -9.68 9 -9 9 C-9.33 7.68 -9.66 6.36 -10 5 C-3.87096774 0 -3.87096774 0 0 0 Z " fill="#683946" transform="translate(52,31)"/>
<path d="M0 0 C2.875 -0.125 2.875 -0.125 6 0 C6.66 0.66 7.32 1.32 8 2 C6.35 2.66 4.7 3.32 3 4 C3.350625 4.928125 3.70125 5.85625 4.0625 6.8125 C5 10 5 10 4 13 C-0.875 12.125 -0.875 12.125 -2 11 C-1.57699017 7.26341315 -1.01457095 3.62346766 0 0 Z " fill="#67505C" transform="translate(31,15)"/>
<path d="M0 0 C2.33004796 1.79234458 3.83526408 3.42948202 5.4375 5.875 C5.1075 6.205 4.7775 6.535 4.4375 6.875 C4.20462992 8.55683948 4.02485834 10.2462416 3.875 11.9375 C3.79121094 12.85660156 3.70742188 13.77570312 3.62109375 14.72265625 C3.56050781 15.43292969 3.49992187 16.14320312 3.4375 16.875 C3.1075 16.875 2.7775 16.875 2.4375 16.875 C2.31375 16.09125 2.19 15.3075 2.0625 14.5 C1.64632007 11.73442178 1.64632007 11.73442178 -0.5625 9.875 C-1.5525 10.37 -1.5525 10.37 -2.5625 10.875 C-2.5625 8.235 -2.5625 5.595 -2.5625 2.875 C-3.8825 2.215 -5.2025 1.555 -6.5625 0.875 C-3.8596442 -1.02700964 -3.11130223 -1.36593756 0 0 Z " fill="#D1C6D5" transform="translate(25.5625,8.125)"/>
<path d="M0 0 C0.33 0.99 0.66 1.98 1 3 C1.639375 3.309375 2.27875 3.61875 2.9375 3.9375 C5.56442236 5.29076304 6.07157889 6.21473667 7 9 C7.25 12.125 7.25 12.125 7 15 C6.34 15.66 5.68 16.32 5 17 C5 15.68 5 14.36 5 13 C4.34 13 3.68 13 3 13 C3 12.34 3 11.68 3 11 C1.68 10.67 0.36 10.34 -1 10 C-0.67 9.01 -0.34 8.02 0 7 C0.33 7.99 0.66 8.98 1 10 C2.32 9.34 3.64 8.68 5 8 C4.34 8 3.68 8 3 8 C2.67 7.34 2.34 6.68 2 6 C-1.02934491 5.34227572 -1.02934491 5.34227572 -4 5 C-3.67 3.68 -3.34 2.36 -3 1 C-2.01 1.33 -1.02 1.66 0 2 C0 1.34 0 0.68 0 0 Z " fill="#84717F" transform="translate(49,20)"/>
<path d="M0 0 C5.42826525 0.85388442 8.75982764 4.80334655 12 9 C12.90115599 11.54612328 13 13.26320285 13 16 C9.20596616 14.73532205 8.93315707 13.38302487 7 10 C6.1646875 9.2265625 6.1646875 9.2265625 5.3125 8.4375 C4 7 4 7 4 3 C3.01 3 2.02 3 1 3 C0.67 2.01 0.34 1.02 0 0 Z " fill="#5F323B" transform="translate(40,8)"/>
<path d="M0 0 C2.67985418 2.67985418 3.16491955 5.42431913 4.21875 9.00390625 C4.81628991 11.18727401 4.81628991 11.18727401 7 12 C7 13.32 7 14.64 7 16 C6.34 16 5.68 16 5 16 C4.34 14.02 3.68 12.04 3 10 C1.68 10 0.36 10 -1 10 C-2.15837626 5.94568308 -1.83691257 3.78187881 0 0 Z M-2 10 C-1.67 10 -1.34 10 -1 10 C-1 11.98 -1 13.96 -1 16 C-1.33 16 -1.66 16 -2 16 C-2 14.02 -2 12.04 -2 10 Z " fill="#E3ECF7" transform="translate(12,14)"/>
<path d="M0 0 C0.33 0.66 0.66 1.32 1 2 C0.22265625 3.8828125 0.22265625 3.8828125 -0.9375 6.125 C-4.06824466 12.86149885 -3.19430628 18.83416234 -2 26 C-4.83792103 22.29836387 -6.34355856 20.00685116 -6.29296875 15.2109375 C-5.59461879 9.94072315 -3.79453474 3.79453474 0 0 Z " fill="#878283" transform="translate(11,12)"/>
<path d="M0 0 C2.31 0 4.62 0 7 0 C7 0.66 7 1.32 7 2 C6.01 2 5.02 2 4 2 C4 2.66 4 3.32 4 4 C4.99 4 5.98 4 7 4 C7 4.66 7 5.32 7 6 C4.69 6 2.38 6 0 6 C-0.33 7.32 -0.66 8.64 -1 10 C-1 8.68 -1 7.36 -1 6 C-2.65 6 -4.3 6 -6 6 C-6 5.67 -6 5.34 -6 5 C-4.02 4.67 -2.04 4.34 0 4 C0 2.68 0 1.36 0 0 Z " fill="#B4A5B6" transform="translate(31,9)"/>
<path d="M0 0 C0.99 0 1.98 0 3 0 C2.37240135 2.92879371 1.41377341 5.36095629 0 8 C-0.66 8 -1.32 8 -2 8 C-2 8.99 -2 9.98 -2 11 C-3.65 11 -5.3 11 -7 11 C-7 9.68 -7 8.36 -7 7 C-5.02 6.67 -3.04 6.34 -1 6 C-0.67 4.02 -0.34 2.04 0 0 Z " fill="#947380" transform="translate(46,35)"/>
<path d="M0 0 C0.33 0 0.66 0 1 0 C2.96263236 5.5415502 3.01603857 9.20858017 2 15 C1.34 15 0.68 15 0 15 C-0.91740621 11.87645029 -1.13460306 9.06313562 -1.125 5.8125 C-1.12757812 4.93207031 -1.13015625 4.05164063 -1.1328125 3.14453125 C-1 1 -1 1 0 0 Z " fill="#CED7E5" transform="translate(27,19)"/>
<path d="M0 0 C1.65 0 3.3 0 5 0 C5.33 1.32 5.66 2.64 6 4 C3.525 5.485 3.525 5.485 1 7 C1 6.34 1 5.68 1 5 C-1.97 4.505 -1.97 4.505 -5 4 C-5 3.67 -5 3.34 -5 3 C-3.35 3 -1.7 3 0 3 C0 2.01 0 1.02 0 0 Z " fill="#BAACBA" transform="translate(44,43)"/>
<path d="M0 0 C0.33 0.66 0.66 1.32 1 2 C-1.31 1.67 -3.62 1.34 -6 1 C-6 2.98 -6 4.96 -6 7 C-6.99 7 -7.98 7 -9 7 C-9 5 -9 3 -9 1 C-9.66 0.67 -10.32 0.34 -11 0 C-6.58108537 -1.84977822 -4.25232356 -2.42989918 0 0 Z " fill="#751D28" transform="translate(43,19)"/>
<path d="M0 0 C0.33 0.99 0.66 1.98 1 3 C1.66 3 2.32 3 3 3 C2.67 3.66 2.34 4.32 2 5 C1.34 4.67 0.68 4.34 0 4 C0 8.62 0 13.24 0 18 C-0.66 16.68 -1.32 15.36 -2 14 C-1.67 13.01 -1.34 12.02 -1 11 C-1.66 11 -2.32 11 -3 11 C-3 10.34 -3 9.68 -3 9 C-3.99 8.67 -4.98 8.34 -6 8 C-5.38125 7.79375 -4.7625 7.5875 -4.125 7.375 C-1.15346355 5.45224112 -0.86975341 3.33405473 0 0 Z " fill="#AFA7B7" transform="translate(39,28)"/>
<path d="M0 0 C0.66 0 1.32 0 2 0 C2 0.66 2 1.32 2 2 C4.475 2.99 4.475 2.99 7 4 C6.01 4.86625 6.01 4.86625 5 5.75 C2.55709077 7.99653977 2.55709077 7.99653977 3 12 C2.34 12 1.68 12 1 12 C0.63877119 10.68942607 0.28619689 9.37646376 -0.0625 8.0625 C-0.35833984 6.96615234 -0.35833984 6.96615234 -0.66015625 5.84765625 C-0.77230469 5.23792969 -0.88445313 4.62820312 -1 4 C-0.67 3.67 -0.34 3.34 0 3 C0 2.01 0 1.02 0 0 Z " fill="#A18D9D" transform="translate(40,28)"/>
<path d="M0 0 C2.97 0.33 5.94 0.66 9 1 C9 1.99 9 2.98 9 4 C6.69 4.33 4.38 4.66 2 5 C1.34 3.35 0.68 1.7 0 0 Z " fill="#B094A1" transform="translate(34,48)"/>
<path d="M0 0 C1.65 0 3.3 0 5 0 C4.67 3.3 4.34 6.6 4 10 C3.67 10 3.34 10 3 10 C2.87625 9.236875 2.7525 8.47375 2.625 7.6875 C2.11897208 4.79732864 2.11897208 4.79732864 0 2 C0 1.34 0 0.68 0 0 Z " fill="#C2C4D5" transform="translate(25,15)"/>
<path d="M0 0 C3.55780196 0.60990891 6.6828589 1.5783681 10 3 C9.01 3.99 8.02 4.98 7 6 C6.34 5.67 5.68 5.34 5 5 C5 4.34 5 3.68 5 3 C2.69 3 0.38 3 -2 3 C-1.34 2.01 -0.68 1.02 0 0 Z " fill="#B6AFBE" transform="translate(37,25)"/>
<path d="M0 0 C2 1.3125 2 1.3125 4 3 C4 3.99 4 4.98 4 6 C3.34 6 2.68 6 2 6 C1.67 6.66 1.34 7.32 1 8 C1 7.01 1 6.02 1 5 C-0.32 4.34 -1.64 3.68 -3 3 C-2.01 2.01 -1.02 1.02 0 0 Z " fill="#BCADBC" transform="translate(45,16)"/>
<path d="M0 0 C2 2 2 2 2.125 4.625 C2.08375 5.40875 2.0425 6.1925 2 7 C3.32 6.67 4.64 6.34 6 6 C6 6.66 6 7.32 6 8 C4.02 8.33 2.04 8.66 0 9 C0 6.03 0 3.06 0 0 Z " fill="#5D4E5B" transform="translate(39,33)"/>
<path d="M0 0 C0.66 0 1.32 0 2 0 C2.66 1.65 3.32 3.3 4 5 C2.35 5.33 0.7 5.66 -1 6 C-1.042721 4.33388095 -1.04063832 2.66617115 -1 1 C-0.67 0.67 -0.34 0.34 0 0 Z " fill="#B5AEBC" transform="translate(32,20)"/>
<path d="M0 0 C1.65 0 3.3 0 5 0 C5.33 1.32 5.66 2.64 6 4 C4.02 4 2.04 4 0 4 C0 2.68 0 1.36 0 0 Z " fill="#AD2E3E" transform="translate(23,35)"/>
<path d="M0 0 C0.66 0 1.32 0 2 0 C2.433125 1.2065625 2.433125 1.2065625 2.875 2.4375 C3.73262568 5.1326468 3.73262568 5.1326468 6 6 C6 7.32 6 8.64 6 10 C5.34 10 4.68 10 4 10 C3.32845067 8.71086513 2.66291141 7.41859796 2 6.125 C1.62875 5.40570312 1.2575 4.68640625 0.875 3.9453125 C0 2 0 2 0 0 Z " fill="#797C86" transform="translate(13,20)"/>
<path d="M0 0 C0.99 0.33 1.98 0.66 3 1 C3 5 3 5 2 8 C1.34 8 0.68 8 0 8 C-0.185625 7.071875 -0.185625 7.071875 -0.375 6.125 C-0.87197356 3.80879168 -0.87197356 3.80879168 -3 2 C-2.01 2 -1.02 2 0 2 C0 1.34 0 0.68 0 0 Z " fill="#C39DAE" transform="translate(29,37)"/>
<path d="M0 0 C2 3 2 3 2 6 C-0.97 5.505 -0.97 5.505 -4 5 C-3.67 3.68 -3.34 2.36 -3 1 C-2.01 1.33 -1.02 1.66 0 2 C0 1.34 0 0.68 0 0 Z " fill="#A37686" transform="translate(49,20)"/>
<path d="M0 0 C3.25543229 0.34879632 4.01873107 1.02133261 6.25 3.5625 C6.8275 4.366875 7.405 5.17125 8 6 C6.68 6.33 5.36 6.66 4 7 C4 5.68 4 4.36 4 3 C3.01 3 2.02 3 1 3 C0.67 2.01 0.34 1.02 0 0 Z " fill="#695157" transform="translate(40,8)"/>
<path d="M0 0 C0.33 0 0.66 0 1 0 C1.53154742 1.60064843 2.04988353 3.20568874 2.5625 4.8125 C2.85253906 5.70582031 3.14257812 6.59914063 3.44140625 7.51953125 C4 10 4 10 3 13 C0.33409063 8.44573816 -0.31563182 5.26053037 0 0 Z " fill="#7A706F" transform="translate(5,25)"/>
<path d="M0 0 C2.31 0.33 4.62 0.66 7 1 C7 1.66 7 2.32 7 3 C4.69 3 2.38 3 0 3 C0 2.01 0 1.02 0 0 Z " fill="#DCD9E4" transform="translate(38,47)"/>
<path d="M0 0 C1.65 0 3.3 0 5 0 C5.33 0.99 5.66 1.98 6 3 C6.66 3.66 7.32 4.32 8 5 C6.35 4.67 4.7 4.34 3 4 C3 3.34 3 2.68 3 2 C2.01 1.67 1.02 1.34 0 1 C0 0.67 0 0.34 0 0 Z " fill="#AA7889" transform="translate(25,8)"/>
</svg>
